<svg t="1609898564051" class="icon" viewBox="0 0 1024 1024" version="1.1" xmlns="http://www.w3.org/2000/svg" p-id="7085" width="200" height="200"><path d="M829.952 932.864H255.488c-33.792 0-61.44-27.648-61.44-61.44V219.648c0-33.792 27.648-61.44 61.44-61.44h574.464c33.792 0 61.44 27.648 61.44 61.44V871.424c0 33.792-27.648 61.44-61.44 61.44z" fill="#CEF3FF" p-id="7086"></path><path d="M877.056 958.976H146.944c-27.648 0-50.176-22.528-50.176-50.176v-793.6c0-27.648 22.528-50.176 50.176-50.176h730.112c27.648 0 50.176 22.528 50.176 50.176v794.112c0 27.136-22.528 49.664-50.176 49.664zM403.968 124.928h-226.816c-11.264 0-19.968 8.704-19.968 19.968V879.104c0 11.264 8.704 19.968 19.968 19.968h226.816V124.928z m152.064 0h-92.16v774.144h92.16V124.928z m310.784 19.968c0-11.264-8.704-19.968-19.968-19.968h-230.912v774.144h230.912c11.264 0 19.968-8.704 19.968-19.968V144.896z m-101.888 478.72c-5.632 8.192-14.848 13.312-24.576 13.312-7.168 0-13.824-2.56-19.456-7.168l-0.512-0.512-1.024-1.024-1.024-1.024-56.32-56.32c-11.776-11.776-11.776-30.72-0.512-42.496 11.776-11.776 30.72-11.776 42.496-0.512l0.512 0.512 5.632 5.632V418.816c0-16.384 13.312-30.208 30.208-30.208 16.384 0 30.208 13.312 30.208 30.208v114.688l5.12-5.12c11.776-11.776 30.72-11.776 42.496 0 11.776 11.776 11.776 30.72 0 42.496l-53.248 52.736zM255.488 400.896c9.216-13.824 28.16-17.408 41.472-7.68 1.024 0.512 1.536 1.024 2.048 1.536l0.512 0.512 0.512 0.512c0.512 0.512 1.024 0.512 1.024 1.024l56.32 56.32c11.776 11.776 11.264 30.72-0.512 42.496-11.776 11.264-30.208 11.264-41.984 0l-5.632-5.632v115.712c0 16.384-13.312 30.208-30.208 30.208-16.384 0-30.208-13.312-30.208-30.208V491.008l-5.12 5.12c-11.776 11.776-30.72 11.776-42.496 0-11.776-11.776-11.776-30.72 0-42.496l54.272-52.736z" fill="#479EF8" p-id="7087"></path></svg>